<?xml version="1.0" standalone="no"?>
<!DOCTYPE svg PUBLIC "-//W3C//DTD SVG 20010904//EN"
 "http://www.w3.org/TR/2001/REC-SVG-20010904/DTD/svg10.dtd">
<svg version="1.0" xmlns="http://www.w3.org/2000/svg"
 width="1024.000000pt" height="1024.000000pt" viewBox="0 0 1024.000000 1024.000000"
 preserveAspectRatio="xMidYMid meet">

<g transform="translate(0.000000,1024.000000) scale(0.100000,-0.100000)"
fill="#000000" stroke="none">
<path d="M4405 7545 c-213 -40 -396 -153 -531 -327 -38 -49 -51 -59 -102 -73
-72 -21 -161 -65 -223 -111 -64 -47 -166 -159 -207 -227 -80 -133 -132 -305
-132 -438 0 -45 -3 -50 -51 -91 -127 -107 -237 -289 -286 -473 -35 -134 -39
-368 -9 -482 l20 -73 -21 -42 c-38 -78 -48 -145 -47 -308 0 -128 4 -171 23
-245 51 -197 170 -389 305 -490 60 -45 66 -53 66 -85 0 -81 43 -255 61 -245 5
4 6 0 3 -8 -3 -8 9 -44 27 -78 103 -207 276 -359 491 -432 9 -3 33 -31 53 -61
49 -75 169 -185 244 -224 331 -177 735 -118 922 134 35 48 75 124 104 199 6
16 10 11 26 -33 50 -144 163 -274 289 -335 109 -52 216 -71 364 -64 286 13
507 135 649 360 10 15 24 27 31 27 8 0 49 18 93 40 97 48 213 145 282 236 101
134 181 339 181 467 0 33 5 51 18 61 9 8 32 27 50 41 17 15 29 32 25 37 -3 7
-1 8 5 4 26 -16 157 157 214 281 58 129 81 240 82 408 1 155 -8 217 -46 307
-19 44 -19 50 -5 95 24 74 28 116 28 248 0 141 -11 214 -51 331 -49 144 -151
300 -255 388 -53 46 -54 47 -60 114 -3 37 -12 99 -20 138 -23 120 -95 291
-117 278 -7 -4 -8 -3 -4 5 21 34 -150 213 -265 278 -41 23 -105 51 -144 63
-57 17 -74 27 -94 55 -13 19 -27 33 -31 30 -4 -3 -14 3 -21 13 -13 15 -12 16
4 3 41 -33 11 10 -51 72 -61 61 -94 85 -76 56 4 -8 0 -8 -15 0 -25 14 -28 23
-3 14 35 -12 -11 24 -78 62 -181 102 -425 139 -606 91 -171 -45 -322 -196
-375 -374 -14 -49 -19 -46 -44 23 -36 100 -119 216 -191 266 -44 30 -60 36
-49 19 3 -6 -1 -7 -10 -3 -13 4 -14 8 -4 14 19 11 -62 44 -155 64 -89 18 -185
18 -281 0z m58 -12 c-7 -2 -19 -2 -25 0 -7 3 -2 5 12 5 14 0 19 -2 13 -5z
m256 -9 c9 -8 -45 -2 -64 6 -14 7 -8 8 20 3 22 -3 42 -7 44 -9z m1038 10 c-3
-3 -12 -4 -19 -1 -8 3 -5 6 6 6 11 1 17 -2 13 -5z m60 0 c-3 -3 -12 -4 -19 -1
-8 3 -5 6 6 6 11 1 17 -2 13 -5z m-1404 -11 c-7 -2 -19 -2 -25 0 -7 3 -2 5 12
5 14 0 19 -2 13 -5z m268 -238 c55 -19 119 -80 151 -143 l23 -47 3 -1825 c3
-2079 11 -1891 -86 -1990 -48 -49 -68 -61 -126 -79 -133 -41 -274 -24 -421 49
-74 37 -175 119 -175 142 0 6 74 86 165 180 217 224 219 227 223 446 l4 162
26 14 c40 21 89 76 108 121 22 51 22 157 0 208 -69 160 -297 208 -422 89 -51
-50 -75 -99 -81 -172 -6 -58 11 -135 27 -125 5 3 12 0 16 -6 4 -8 3 -9 -4 -5
-16 10 -15 -1 4 -32 9 -15 35 -42 59 -60 30 -23 44 -42 48 -65 8 -55 -8 -231
-24 -254 -28 -40 -312 -338 -325 -341 -28 -7 -158 73 -224 137 -123 121 -188
265 -197 436 -6 100 -14 135 -34 135 -6 0 -7 -6 -3 -12 4 -8 3 -10 -2 -5 -5 5
-9 12 -9 17 0 4 -28 29 -63 55 -117 88 -209 227 -254 380 -32 110 -33 350 -3
435 l20 55 358 5 c351 5 359 5 370 -15 26 -51 83 -105 140 -136 55 -30 71 -33
142 -34 97 0 170 30 233 94 69 71 87 120 87 236 0 89 -3 106 -27 150 -28 53
-96 123 -144 148 -16 8 -57 20 -90 27 -107 21 -220 -20 -289 -104 -19 -23 -41
-59 -50 -79 l-15 -37 -359 0 c-318 0 -360 2 -365 16 -11 29 -6 172 9 242 39
187 132 332 308 478 l37 31 0 84 c1 207 81 397 221 523 51 45 177 116 208 116
27 0 192 -159 212 -205 11 -24 19 -64 19 -101 0 -56 -2 -62 -36 -95 -59 -56
-78 -103 -79 -190 0 -67 3 -81 30 -125 45 -72 119 -114 201 -114 70 0 102 10
156 47 79 54 113 193 69 289 -22 49 -75 111 -102 119 -15 5 -19 16 -19 58 0
78 -17 164 -41 215 -22 45 -148 181 -204 219 l-30 21 58 54 c169 155 398 221
568 163z m1199 -11 c147 -46 275 -148 347 -275 30 -53 32 -55 91 -67 102 -21
210 -82 284 -161 122 -128 176 -261 187 -454 l6 -119 40 -31 c69 -53 179 -171
214 -231 19 -31 50 -103 69 -159 34 -96 36 -109 36 -237 1 -93 -3 -142 -12
-157 l-13 -23 -283 0 -283 0 -169 101 c-211 126 -232 142 -255 193 -15 34 -19
66 -19 193 l0 152 45 36 c60 49 96 125 96 199 0 62 -18 129 -32 121 -5 -4 -6
1 -3 10 5 11 -8 30 -38 59 -126 120 -317 92 -395 -57 -40 -76 -39 -171 1 -245
16 -29 48 -68 72 -87 l42 -35 4 -202 c3 -196 4 -205 30 -261 41 -88 112 -149
327 -282 107 -66 208 -126 224 -132 21 -10 114 -13 339 -13 l309 0 16 -37 c25
-58 29 -221 8 -323 -26 -133 -99 -274 -188 -364 -40 -41 -96 -88 -125 -106
-35 -21 -51 -37 -48 -47 3 -8 1 -11 -4 -8 -6 3 -10 0 -10 -7 -4 -122 -12 -204
-24 -250 -23 -84 -72 -179 -125 -242 -44 -51 -150 -144 -189 -165 -14 -8 -44
18 -161 142 -80 84 -151 156 -160 161 -14 8 -14 7 -2 -7 7 -9 9 -17 5 -17 -5
0 -15 9 -22 21 -8 12 -9 18 -3 14 20 -12 11 7 -19 42 l-30 34 0 192 0 192 49
27 c85 47 131 130 131 237 0 83 -25 147 -79 201 -70 69 -109 85 -216 85 -80 0
-95 -3 -137 -27 -25 -16 -62 -47 -82 -69 -105 -124 -81 -328 50 -417 l49 -34
6 -216 c5 -169 10 -228 24 -265 13 -36 57 -90 196 -238 98 -105 179 -199 179
-208 0 -49 -150 -157 -274 -198 -71 -24 -97 -27 -216 -27 -120 -1 -141 2 -186
22 -28 13 -68 41 -90 63 -23 23 -41 35 -45 28 -4 -7 -9 -5 -12 6 -5 11 -3 14
5 9 8 -5 9 -2 3 12 -47 111 -44 -23 -44 1924 l-1 1805 24 56 c43 106 96 156
196 183 72 20 189 12 290 -20z m-822 -39 c-3 -3 -9 2 -12 12 -6 14 -5 15 5 6
7 -7 10 -15 7 -18z m-1241 -101 c-3 -3 -12 -4 -19 -1 -8 3 -5 6 6 6 11 1 17
-2 13 -5z m2934 -161 c13 -16 12 -17 -3 -4 -10 7 -18 15 -18 17 0 8 8 3 21
-13z m177 -248 c-3 -3 -9 2 -12 12 -6 14 -5 15 5 6 7 -7 10 -15 7 -18z m51
-125 c0 -10 -3 -8 -9 5 -12 27 -12 43 0 25 5 -8 9 -22 9 -30z m-2102 -42 c-3
-8 -6 -5 -6 6 -1 11 2 17 5 13 3 -3 4 -12 1 -19z m1304 -145 c13 -16 12 -17
-3 -4 -10 7 -18 15 -18 17 0 8 8 3 21 -13z m836 -5 c-3 -8 -6 -5 -6 6 -1 11 2
17 5 13 3 -3 4 -12 1 -19z m-2560 -50 c-3 -8 -6 -5 -6 6 -1 11 2 17 5 13 3 -3
4 -12 1 -19z m1790 -105 c-3 -10 -5 -2 -5 17 0 19 2 27 5 18 2 -10 2 -26 0
-35z m0 -45 c-3 -8 -6 -5 -6 6 -1 11 2 17 5 13 3 -3 4 -12 1 -19z m898 -8 c10
-11 16 -20 13 -20 -3 0 -13 9 -23 20 -10 11 -16 20 -13 20 3 0 13 -9 23 -20z
m84 -114 c-3 -3 -11 5 -18 17 -13 21 -12 21 5 5 10 -10 16 -20 13 -22z m71
-121 c0 -5 -5 -3 -10 5 -5 8 -10 20 -10 25 0 6 5 3 10 -5 5 -8 10 -19 10 -25z
m-4393 -117 c-3 -8 -6 -5 -6 6 -1 11 2 17 5 13 3 -3 4 -12 1 -19z m4472 -147
c1 -35 -5 -22 -12 24 -5 28 -4 34 3 20 5 -11 9 -31 9 -44z m-222 7 c-3 -7 -5
-2 -5 12 0 14 2 19 5 13 2 -7 2 -19 0 -25z m-2877 -104 c0 -2 -9 0 -20 6 -11
6 -20 13 -20 16 0 2 9 0 20 -6 11 -6 20 -13 20 -16z m-290 12 c0 -2 -7 -7 -16
-10 -8 -3 -12 -2 -9 4 6 10 25 14 25 6z m2315 -116 c3 -6 -1 -7 -9 -4 -18 7
-21 14 -7 14 6 0 13 -4 16 -10z m1072 -122 c-3 -7 -5 -2 -5 12 0 14 2 19 5 13
2 -7 2 -19 0 -25z m-760 -34 c-3 -3 -12 -4 -19 -1 -8 3 -5 6 6 6 11 1 17 -2
13 -5z m-3780 -336 c-3 -7 -5 -2 -5 12 0 14 2 19 5 13 2 -7 2 -19 0 -25z
m4360 -50 c-2 -13 -4 -5 -4 17 -1 22 1 32 4 23 2 -10 2 -28 0 -40z m220 -80
c-2 -18 -4 -6 -4 27 0 33 2 48 4 33 2 -15 2 -42 0 -60z m-4370 -60 c-3 -8 -6
-5 -6 6 -1 11 2 17 5 13 3 -3 4 -12 1 -19z m3147 -84 c3 -8 2 -12 -4 -9 -6 3
-10 10 -10 16 0 14 7 11 14 -7z m23 -66 c-3 -8 -6 -5 -6 6 -1 11 2 17 5 13 3
-3 4 -12 1 -19z m-1640 -250 c-3 -7 -5 -2 -5 12 0 14 2 19 5 13 2 -7 2 -19 0
-25z m300 -10 c-3 -8 -6 -5 -6 6 -1 11 2 17 5 13 3 -3 4 -12 1 -19z m-587
-742 c0 -2 -8 -10 -17 -17 -16 -13 -17 -12 -4 4 13 16 21 21 21 13z m2051 -33
c13 -16 12 -17 -3 -4 -10 7 -18 15 -18 17 0 8 8 3 21 -13z m-734 -459 c-3 -3
-12 -4 -19 -1 -8 3 -5 6 6 6 11 1 17 -2 13 -5z m-132 -182 c-3 -3 -11 0 -18 7
-9 10 -8 11 6 5 10 -3 15 -9 12 -12z m552 -8 c-3 -3 -12 -4 -19 -1 -8 3 -5 6
6 6 11 1 17 -2 13 -5z"/>
</g>
</svg>
